# xmcd CD database file
#
# Track frame offsets:
#	150
#	22425
#	40237
#	62222
#	77715
#	104375
#	131932
#	164257
#	189025
#	206962
#
# Disc length: 3165 seconds
#
# Revision: 0
# Processed by: cddbd v1.5.1PL0 Copyright (c) Steve Scherf et al.
# Submitted via: CDex 1.51
#
DISCID=910c5b0a
DTITLE=バンバンバザール - All Night Potato Long
DYEAR=1900
DGENRE=Blues
TTITLE0=FREE
TTITLE1=家庭教師2003
TTITLE2=Midnight Brunch Special
TTITLE3=田舎の娘
TTITLE4=ダンディー
TTITLE5=夜よ明けるな
TTITLE6=シカーダ
TTITLE7=ロックンロール
TTITLE8=Fish and Chips
TTITLE9=4 or 5 times
EXTD=
EXTT0=
EXTT1=
EXTT2=
EXTT3=
EXTT4=
EXTT5=
EXTT6=
EXTT7=
EXTT8=
EXTT9=
PLAYORDER=
